<svg width="878" height="861" viewBox="0 0 878 861" fill="none" xmlns="http://www.w3.org/2000/svg">
<path fill-rule="evenodd" clip-rule="evenodd" d="M158.722 59.4802C176.945 41.5235 193.81 24.905 213.406 14.5947C235.901 2.75556 303.3 0 305.076 0C305.451 0 303.384 3.21645 299.876 8.6753L299.875 8.67633C286.865 28.9192 254.04 79.9939 252.471 112.237C248.309 197.742 267.247 281.703 276.551 291.5L282.857 298.139L334.929 271.962C334.929 271.962 368.496 254.075 390.558 249.246C409.414 245.118 436.094 245.059 436.094 245.059C436.094 245.059 466.153 245.11 485.008 249.245C507.005 254.068 536.929 271.884 536.929 271.884C565.487 286.244 590.158 296.615 591.756 294.933C591.968 294.71 592.185 294.482 592.408 294.249C602.389 283.797 623.229 261.976 623.364 150.945L600.35 34.6163L682.544 67.5029C729.047 87.851 757.263 115.677 783.506 161.939C813.373 214.606 823.65 240.043 823.65 306.114V359.826C823.65 359.826 865.401 370.224 869.001 376.812C873.557 385.149 858.851 408.614 849.254 418.533C840.443 427.641 829.13 440.78 830.771 445.055C832.73 450.154 843.278 451.625 855.206 457.261C855.206 457.261 876.899 464.872 877.958 470.795C879.016 476.718 860.047 496.215 852.084 503.294C844.12 510.374 827.451 536.77 856.6 543.513C899.21 553.366 869.041 582.278 784.598 612.527C709.899 639.286 675.437 658.021 584.26 721.419C500.711 779.521 469.845 807.43 456.76 836.696C449.599 852.705 443.031 860.734 436.088 860.784C429.19 860.833 422.543 853.004 415.52 837.299C401.941 806.926 368.984 778.082 271.633 711.354C178.759 647.699 173.058 644.66 88.0953 613.373C3.13572 570.928 -2.37535 561.705 23.2939 545.017C23.2939 545.017 40.2306 534.477 42.8158 529.647C45.7635 524.14 18.8412 500.312 18.8412 500.312C-3.81822 472.577 -5.5169 463.026 10.9374 456.846C18.2313 454.107 28.5534 450.221 28.5534 450.221C28.5534 450.221 37.9857 446.641 38.3444 443.706C38.8889 439.25 15.856 419.28 15.856 419.28C3.48729 405.841 1.9924 391.882 2.64484 386.914C3.61956 379.492 15.4602 378.396 22.997 374.969C30.5338 371.543 43.5787 367.59 46.9453 359.814C48.809 355.509 46.2946 312.043 49.2994 281.654C51.647 257.911 58.4914 221.552 58.4914 221.552C58.4914 221.552 66.941 187.625 73.1666 172.157C81.1131 152.413 95.3972 133.644 107.598 116.206C126.623 89.0135 150.55 67.504 150.55 67.504C153.311 64.8114 156.031 62.1314 158.721 59.4812L158.722 59.4802ZM252.471 408.562C264.527 440.871 307.706 499.26 383.983 474.335C378.503 452.411 344.53 408.562 252.471 408.562ZM491.584 474.334C513.503 497.412 570.491 516.567 623.096 408.561C590.218 407.407 517.886 418.946 491.584 474.334Z" fill="#D9D9D9"/>
</svg>
