<svg width="80" height="80" viewBox="0 0 80 80" xmlns="http://www.w3.org/2000/svg">
    <style>
        path {
            fill: black;
        }

        @media (prefers-color-scheme: dark) {
            path {
                fill: #4872B0;
            }
        }
    </style>
    <path class="logo" d="M19.7047 1.35641C17.6662 2.45608 15.9537 4.32791 14.0071 6.27373L9.23869 12.4767L6.55649 16.7299L5.66243 20.5907L4.82921 26.1766L4.61583 33.4406L2.44503 34.8491C1.25056 35.6232 0.158003 36.3561 0.0161441 36.4771C-0.125119 36.5974 0.67657 37.7183 1.79773 38.9672L3.8362 41.2374L2.94869 41.8429C2.46113 42.1762 1.7423 42.4529 1.35189 42.4587C-0.240744 42.4805 0.0143609 43.9206 2.06833 46.4983L4.24151 49.2246L2.11124 50.1898C-1.88703 52.0018 -0.2932 53.7443 8.34587 57.006C16.0474 59.9138 16.5641 60.1962 24.9827 66.1122C33.8071 72.3139 36.7945 74.9945 38.0253 77.8174C38.662 79.2769 39.2853 80.0046 39.9106 80C40.5399 79.9954 41.1713 79.2493 41.8203 77.7614C43.0065 75.0415 45.8043 72.4477 53.3777 67.0478C61.6424 61.1557 64.7663 59.4144 71.5374 56.9275C79.1918 54.1162 81.9264 51.4291 78.064 50.5135C75.4218 49.8867 75.3699 49.1686 77.7487 46.1682L79.904 43.4496L77.9377 42.4973C76.8565 41.9735 75.8599 41.4632 75.7228 41.3628C75.5863 41.2631 76.4929 40.231 77.7374 39.0702L80 36.9584L77.5383 35.1998L75.0773 33.4419V28.4499C75.0773 22.3094 74.1457 19.9453 71.4384 15.0505C69.0596 10.7509 66.5019 8.16485 62.2867 6.27373L54.8361 3.2173L56.9223 14.0287C56.9098 24.5782 54.9357 26.4623 54.0571 27.4107C53.9123 27.5671 51.6759 26.6032 49.0873 25.2686C49.0873 25.2686 46.3749 23.9345 44.381 23.4863C42.6718 23.102 39.9106 22.8428 39.9106 22.8428C39.9106 22.8428 37.1495 23.1026 35.4403 23.4863C33.4404 23.9351 30.7202 25.2757 30.7202 25.2757L26.0001 27.7086L25.4285 27.0916C24.5851 26.1811 22.8685 18.3778 23.2457 10.4311C23.4264 6.62634 28.1744 0 28.0141 0C27.8532 0 21.7438 0.256098 19.7047 1.35641Z" />
    
</svg>
