<svg width="248" height="454" viewBox="0 0 248 454" fill="none" xmlns="http://www.w3.org/2000/svg">
<path fill-rule="evenodd" clip-rule="evenodd" d="M83.3983 377.581C36.5802 409.441 19.2842 424.744 11.9516 440.791C7.93918 449.57 4.26145 453.972 0.371094 453.999V116.375C0.371094 116.375 17.2155 116.403 27.7812 118.67C40.1075 121.315 56.8757 131.084 56.8757 131.084C72.8784 138.958 86.7035 144.645 87.5989 143.723C87.7175 143.6 87.8393 143.476 87.9642 143.348C93.5574 137.617 105.235 125.651 105.311 64.7687L92.4145 0.981445L138.473 19.0144C164.532 30.172 180.343 45.4298 195.049 70.7974C211.785 99.6767 217.544 113.625 217.544 149.854V179.306C217.544 179.306 240.94 185.008 242.957 188.62C245.51 193.192 237.269 206.058 231.892 211.497C226.954 216.491 220.615 223.696 221.535 226.04C222.632 228.836 228.543 229.643 235.227 232.733C235.227 232.733 247.383 236.907 247.976 240.155C248.569 243.402 237.94 254.093 233.477 257.975C229.015 261.857 219.674 276.331 236.008 280.029C259.885 285.431 242.98 301.285 195.661 317.871C153.802 332.545 134.491 342.818 83.3983 377.581ZM31.4661 242.095C43.7485 254.75 75.6828 265.253 105.161 206.029C86.7369 205.396 46.205 211.724 31.4661 242.095Z" fill="white"/>
</svg>
