<svg width="245" height="472" viewBox="0 0 245 472" fill="none" xmlns="http://www.w3.org/2000/svg">
<path fill-rule="evenodd" clip-rule="evenodd" d="M88.9422 32.6152C99.1539 22.7689 108.605 13.6563 119.585 8.00284C132.191 1.51098 169.959 0 170.954 0C171.164 0 170.006 1.76392 168.039 4.75755C160.749 15.8575 142.355 43.8636 141.476 61.5436C139.143 108.429 149.756 154.468 154.97 159.84L158.503 163.481L187.683 149.127C187.683 149.127 206.492 139.319 218.855 136.671C229.421 134.407 244.369 134.375 244.369 134.375L244.369 472C240.503 472.027 236.778 467.734 232.843 459.122C225.234 442.468 206.766 426.652 152.213 390.062C100.17 355.158 96.9758 353.491 49.3655 336.335C1.75714 313.061 -1.33106 308.004 13.0531 298.853C13.0531 298.853 22.5438 293.073 23.9925 290.425C25.6443 287.406 10.558 274.34 10.558 274.34C-2.1396 259.131 -3.09147 253.894 6.12894 250.506C10.2162 249.004 16.0003 246.873 16.0003 246.873C16.0003 246.873 21.2859 244.91 21.4869 243.3C21.7919 240.857 8.88512 229.907 8.88512 229.907C1.95415 222.538 1.11647 214.883 1.48208 212.159C2.02828 208.089 8.66337 207.489 12.8867 205.61C17.1101 203.731 24.42 201.563 26.3065 197.299C27.3508 194.939 27.6256 154.442 27.6256 154.442L32.7765 121.485L38.3036 98.7066L54.8849 73.6124L84.3627 37.015C85.9105 35.5384 87.4348 34.0686 88.9422 32.6152ZM141.476 224.03C148.231 241.746 172.428 273.763 215.171 260.096C212.1 248.074 193.062 224.03 141.476 224.03Z" fill="white"/>
</svg>
